# AST/ASF file generated using VICON BodyLanguage
# -----------------------------------------------
:version 1.10
:name VICON
:units
  mass 1.0
  length 0.45
  angle deg
:documentation
   .ast/.asf automatically generated from VICON data using
   VICON BodyBuilder and BodyLanguage model FoxedUp or BRILLIANT.MOD
:root
   order TX TY TZ RX RY RZ
   axis XYZ
   position 0 0 0  
   orientation 0 0 0 
:bonedata
  begin
     id 1 
     name lhipjoint
     direction 0.547975 -0.797114 0.253638 
     length 2.36201 
     axis 0 0 0  XYZ
  end
  begin
     id 2 
     name lfemur
     direction 0.34202 -0.939693 0  
     length 7.69075  
     axis 0 0 20  XYZ
    dof rx ry rz
    limits (-160.0 20.0)
           (-70.0 70.0)
           (-60.0 70.0)
  end
  begin
     id 3 
     name ltibia
     direction 0.34202 -0.939693 0   
     length 7.91399   
     axis 0 0 20   XYZ
    dof rx
    limits (-10.0 170.0)
  end
  begin
     id 4 
     name lfoot
     direction 0.0705293 -0.193778 0.978507   
     length 2.13618   
     axis -90 7.62852e-016 20   XYZ
    dof rx rz
    limits (-45.0 90.0)
           (-70.0 20.0)
  end
  begin
     id 5 
     name ltoes
     direction 1.53592e-011 -4.21925e-011 1   
     length 1.07518   
     axis -90 7.62852e-016 20   XYZ
    dof rx
    limits (-90.0 20.0)
  end
  begin
     id 6 
     name rhipjoint
     direction -0.57 -0.782963 0.249136   
     length 2.4047  
     axis 0 0 0  XYZ 
  end
  begin
     id 7 
     name rfemur
     direction -0.34202 -0.939693 0   
     length 7.51486   
     axis 0 0 -20   XYZ
    dof rx ry rz
    limits (-160.0 20.0)
           (-70.0 70.0)
           (-70.0 60.0)
  end
  begin
     id 8 
     name rtibia
     direction -0.34202 -0.939693 0   
     length 8.08317   
     axis 0 0 -20   XYZ
    dof rx
    limits (-10.0 170.0)
 end
 begin
     id 9 
     name rfoot
     direction -0.104954 -0.281256 0.953876   
     length 2.30343  
     axis -90 -7.62852e-016 -20   XYZ
    dof rx rz
    limits (-45.0 90.0)
           (-20.0 70.0)
  end
  begin
     id 10 
     name rtoes
     direction -1.53556e-011 -4.21922e-011 1   
     length 1.14803   
     axis -90 -7.62852e-016 -20   XYZ
    dof rx
    limits (-90.0 20.0)
  end
  begin
     id 11 
     name lowerback
     direction -0.0152855 0.99353 -0.11254   
     length 2.05311   
     axis 0 0 0   XYZ
    dof rx ry rz
    limits (-20.0 45.0)
           (-30.0 30.0)
           (-30.0 30.0)
  end
  begin
     id 12 
     name upperback
     direction -0.00157509 0.999443 -0.033332   
     length 2.06353   
     axis 0 0 0   XYZ
    dof rx ry rz
    limits (-20.0 45.0)
           (-30.0 30.0)
           (-30.0 30.0)
  end
  begin
     id 13 
     name thorax
     direction 0.00577788 0.999804 0.0189484   
     length 2.08472   
     axis 0 0 0   XYZ
    dof rx ry rz
    limits (-20.0 45.0)
           (-30.0 30.0)
           (-30.0 30.0)
  end
  begin
     id 14 
     name lowerneck
     direction -1.09301e-005 0.994719 0.10264   
     length 1.76249   
     axis 0 0 0   XYZ
    dof rx ry rz
    limits (-20.0 45.0)
           (-30.0 30.0)
           (-30.0 30.0)
  end
  begin
     id 15 
     name upperneck
     direction 0.0495018 0.988526 -0.142706   
     length 1.77897   
     axis 0 0 0   XYZ
    dof rx ry rz
    limits (-20.0 45.0)
           (-30.0 30.0)
           (-30.0 30.0)
  end
  begin
     id 16
     name head
     direction 0.0142736 0.998114 -0.0597101  
     length 1.78934  
     axis 0 0 0   XYZ
    dof rx ry rz
    limits (-20.0 45.0)
           (-30.0 30.0)
           (-30.0 30.0)
  end
  begin
     id 17 
     name lclavicle
     direction 0.918111 0.396107 -0.0130883  
     length 3.37276  
     axis 0 0 0   XYZ
    dof ry rz
    limits (-20.0 10.0)
           (0.0 20.0)
  end
  begin
     id 18 
     name lhumerus
     direction 1 -4.48975e-011 -3.26108e-027   
     length 5.34298   
     axis 180 -30 -90   XYZ
    dof rx ry rz
    limits (-60.0 90.0)
           (-90.0 90.0)
           (-90.0 90.0)
  end
  begin
     id 19
     name lradius
     direction 1 -4.48964e-011 -8.84413e-028   
     length 3.67262   
     axis 180 -30 -90   XYZ
    dof rx
    limits (-10.0 170.0)
  end
  begin
     id 20
     name lwrist
     direction 1 -4.48991e-011 -1.24264e-027   
     length 1.83631   
     axis -2.17013e-015 90 90   XYZ
    dof ry
    limits (-180.0 0.0)
 end
  begin
     id 21 
     name lhand
     direction 1 -4.48855e-011 -2.48528e-027   
     length 0.599298   
     axis 1.58582e-015 90 90   XYZ
    dof rx rz
    limits (-90.0 90.0)
           (-45.0 45.0)
  end
  begin
     id 22 
     name lfingers
     direction 1 -4.48811e-011 -4.97056e-027   
     length 0.48317   
     axis 3.17164e-015 90 90   XYZ
    dof rx
    limits (0.0 90.0)
  end
  begin
     id 23
     name lthumb
     direction 0.707107 -6.34882e-011 0.707107   
     length 0.693738   
     axis -90 45 2.85299e-015   XYZ
    dof rx rz
    limits (-45.0 45.0)
           (-45.0 45.0)
  end
  begin
     id 24 
     name rclavicle
     direction -0.920511 0.384752 -0.0680135   
     length 3.43787  
     axis 0 0 0   XYZ 
    dof ry rz
    limits (-10.0 20.0)
           (-20.0 0.0)
  end
  begin
     id 25 
     name rhumerus
     direction -0.999976 -0.00330524 0.00603274  
     length 5.5498   
     axis 180 30 90   XYZ
    dof rx ry rz
    limits (-90.0 60.0)
           (-90.0 90.0)
           (-90.0 90.0)
  end
  begin
     id 26 
     name rradius
     direction -1 -4.48967e-011 8.62438e-027   
     length 3.69401   
     axis 180 30 90   XYZ
    dof rx
    limits (-10.0 170.0)
  end
  begin
     id 27 
     name rwrist
     direction -1 -4.4897e-011 9.54866e-027   
     length 1.84701   
     axis -7.69462e-015 -90 -90   XYZ
    dof ry
    limits (-180.0 0.0)
  end
  begin
     id 28
     name rhand
     direction -1 -4.48982e-011 1.90973e-026   
     length 0.638113   
     axis -1.21857e-014 -90 -90   XYZ
    dof rx rz
    limits (-90.0 90.0)
           (-45.0 45.0)
  end
  begin
     id 29
     name rfingers
     direction -1 -4.48936e-011 3.81946e-026   
     length 0.514463   
     axis -2.43714e-014 -90 -90   XYZ
    dof rx
    limits (0.0 90.0)
  end
  begin
     id 30
     name rthumb
     direction -0.707107 -6.34942e-011 0.707107   
     length 0.738669   
     axis -90 -45 -2.85299e-015   XYZ
    dof rx rz
    limits (-45.0 45.0)
           (-45.0 45.0)
  end
:hierarchy
  begin
    root lhipjoint rhipjoint lowerback
    lhipjoint lfemur
    lfemur ltibia
    ltibia lfoot
    lfoot ltoes
    rhipjoint rfemur
    rfemur rtibia
    rtibia rfoot
    rfoot rtoes
    lowerback upperback
    upperback thorax
    thorax lowerneck lclavicle rclavicle
    lowerneck upperneck
    upperneck head
    lclavicle lhumerus
    lhumerus lradius
    lradius lwrist
    lwrist lhand lthumb
    lhand lfingers
    rclavicle rhumerus
    rhumerus rradius
    rradius rwrist
    rwrist rhand rthumb
    rhand rfingers
  end

#!OML:ASF F:\twosubjects\two\Thursday\Session 1\Rory.ASF
:FULLY-SPECIFIED
:DEGREES
131
root 6.12534 18.3919 -8.27721 5.01989 10.5196 2.42208
lowerback 1.39337 2.11233 -3.81827
upperback 3.78189 2.95526 -3.97746
thorax 3.13898 1.43732 -1.92395
lowerneck -3.05431 -3.65861 -4.42294
upperneck 35.0221 -1.98311 -6.94506
head 12.0284 -2.15466 -2.0495
rclavicle -4.21423e-014 3.81667e-014
rhumerus 34.7809 6.90607 -68.3306
rradius 66.7593
rwrist 31.6744
rhand -41.1831 25.5496
rfingers 7.12502
rthumb -14.1081 -3.95151
lclavicle -4.21423e-014 3.81667e-014
lhumerus -31.1366 0.823647 77.5851
lradius 40.972
lwrist -9.03381
lhand -15.4205 47.6275
lfingers 7.12502
lthumb 10.7591 77.3319
rfemur -18.2287 11.044 8.11721
rtibia 20.2102
rfoot -7.27138 0.576975
rtoes -4.82751
lfemur -9.1498 -5.43506 -18.3379
ltibia 18.3182
lfoot -12.6905 -7.49946
ltoes 5.09154
132
root 6.06315 18.3951 -8.21931 4.77862 11.1111 2.28522
lowerback 1.6363 1.43627 -4.19723
upperback 4.10814 2.03669 -3.26725
thorax 3.2942 0.949998 -0.99353
lowerneck -3.7649 -2.87358 -5.76545
upperneck 35.5155 -0.375102 -7.41553
head 12.4682 -1.68704 -1.86268
rclavicle 1.82882e-014 3.97569e-015
rhumerus 36.0416 9.14983 -67.2894
rradius 67.708
rwrist 31.8523
rhand -37.9926 24.0242
rfingers 7.12502
rthumb -11.0321 -5.66584
lclavicle 1.82882e-014 3.97569e-015
lhumerus -31.4081 3.89167 77.4209
lradius 40.5949
lwrist -10.4015
lhand -13.5028 43.8509
lfingers 7.12502
lthumb 12.6085 73.4504
rfemur -17.915 10.8935 8.72616
rtibia 20.7058
rfoot -8.01232 -0.0208194
rtoes -9.48342
lfemur -8.74704 -6.03049 -17.9389
ltibia 18.1772
lfoot -12.6968 -7.41267
ltoes 4.94299
133
root 5.99405 18.3806 -8.16609 4.76155 11.6781 2.50125
lowerback 1.91142 2.02913 -4.1915
upperback 3.92205 2.81229 -3.74739
thorax 2.9629 1.353 -1.49773
lowerneck -2.6876 -3.26077 -4.29421
upperneck 36.0482 -1.1249 -7.56246
head 12.4071 -1.8291 -2.25295
rclavicle 3.00165e-014 -3.73715e-014
rhumerus 34.3619 7.76558 -67.0479
rradius 68.9837
rwrist 32.0904
rhand -41.8817 25.8838
rfingers 7.12502
rthumb -14.7812 -3.56908
lclavicle 3.00165e-014 -3.73715e-014
lhumerus -31.0587 3.43795 76.1521
lradius 38.9431
lwrist -14.3943
lhand -8.83071 33.9637
lfingers 7.12502
lthumb 17.1094 63.2303
rfemur -17.7976 8.21215 9.25843
rtibia 21.0332
rfoot -8.42223 1.66484
rtoes -11.4852
lfemur -8.55442 -6.46814 -17.8777
ltibia 18.0562
lfoot -12.7073 -7.41851
ltoes 4.95438
134
root 5.92904 18.3835 -8.1078 4.79486 12.2379 2.53269
lowerback 1.94594 1.98627 -4.29508
upperback 3.87245 2.75135 -3.7849
thorax 2.8897 1.32181 -1.48121
lowerneck -2.33225 -3.07997 -4.1008
upperneck 36.481 -0.785998 -7.77657
head 12.5261 -1.67592 -2.3455
rclavicle -1.43125e-014 -1.35174e-014
rhumerus 33.9024 8.03387 -66.8875
rradius 70.0136
rwrist 32.3929
rhand -40.974 23.238
rfingers 7.12502
rthumb -13.9066 -6.27703
lclavicle -1.43125e-014 -1.35174e-014
lhumerus -31.1105 3.0044 76.2194
lradius 37.741
lwrist -11.8258
lhand -14.249 30.4315
lfingers 7.12502
lthumb 11.889 60.074
rfemur -17.6441 8.38109 9.67424
rtibia 21.2585
rfoot -8.52302 0.154305
rtoes -11.586
lfemur -8.4669 -6.69593 -17.6447
ltibia 17.951
lfoot -12.5277 -7.53637
ltoes 5.12946
135
root 5.8681 18.396 -8.04442 4.66083 12.6656 2.03383
lowerback 1.87774 1.99523 -3.91749
upperback 3.93542 2.76967 -3.68084
thorax 3.00398 1.33847 -1.57984
lowerneck -2.47835 -3.01305 -3.43936
upperneck 37.1446 -0.441382 -8.55081
head 12.8436 -1.5351 -2.76533
rclavicle 3.18055e-014 8.74653e-015
rhumerus 33.5314 8.21293 -66.9093
rradius 71.1368
rwrist 32.8294
rhand -40.1564 21.4424
rfingers 7.12502
rthumb -13.1186 -8.12498
lclavicle 3.18055e-014 8.74653e-015
lhumerus -30.7549 3.70977 75.6333
lradius 37.2371
lwrist -15.9631
lhand -9.29804 33.2498
lfingers 7.12502
lthumb 16.6595 62.5549
rfemur -17.4076 9.0429 10.6447
rtibia 21.4338
rfoot -8.66011 -1.77005
rtoes -10.8632
lfemur -8.30863 -6.92194 -16.8855
ltibia 17.9031
lfoot -12.5088 -7.52637
ltoes 3.69211
136
root 5.8026 18.4076 -7.98222 4.67573 12.9734 1.74488
lowerback 1.68613 1.79832 -4.01099
upperback 4.07243 2.51897 -3.36689
thorax 3.23524 1.20062 -1.19703
lowerneck -2.05855 -2.52693 -3.95544
upperneck 36.7922 0.290844 -8.53522
head 12.6455 -1.25872 -2.56486
rclavicle 2.98177e-015 -2.38542e-015
rhumerus 33.855 9.05009 -66.5532
rradius 72.1243
rwrist 33.188
rhand -41.2749 22.4273
rfingers 7.12502
rthumb -14.1965 -7.06761
lclavicle 2.98177e-015 -2.38542e-015
lhumerus -30.8358 1.50368 77.4591
lradius 38.3545
lwrist -9.87493
lhand -15.4999 52.5548
lfingers 7.12502
lthumb 10.6826 82.2633
rfemur -17.1391 8.93034 11.4258
rtibia 21.3378
rfoot -8.82425 -2.57726
rtoes -13.3457
lfemur -8.25123 -7.14561 -16.3486
ltibia 17.893
lfoot -12.7586 -7.24
ltoes 0.369723
137
root 5.73783 18.4166 -7.92679 4.82163 13.3178 1.601
lowerback 1.44345 1.37569 -4.28442
upperback 4.17997 1.96651 -2.95986
thorax 3.4645 0.903978 -0.623127
lowerneck -1.61635 -1.8257 -5.23543
upperneck 36.3439 1.35372 -8.32995
head 12.4256 -0.910027 -2.12328
rclavicle -3.49861e-014 3.02153e-014
rhumerus 34.6513 10.4237 -66.1013
rradius 72.7728
rwrist 33.7157
rhand -41.2933 23.2176
rfingers 7.12502
rthumb -14.2142 -6.27601
lclavicle -3.49861e-014 3.02153e-014
lhumerus -30.9463 3.28548 77.5206
lradius 38.066
lwrist -10.3802
lhand -15.0574 53.9818
lfingers 7.12502
lthumb 11.1094 83.6677
rfemur -16.9785 9.11542 11.9163
rtibia 21.1958
rfoot -8.94533 -3.41873
rtoes -15.3623
lfemur -8.41017 -7.212 -15.9709
ltibia 17.9883
lfoot -12.8424 -6.96471
ltoes -1.39075
138
root 5.67659 18.4251 -7.87662 4.88715 13.767 1.33155
lowerback 1.28668 1.74634 -3.86961
upperback 4.28344 2.48207 -3.18775
thorax 3.67759 1.17646 -1.07558
lowerneck -1.5232 -1.95573 -4.66388
upperneck 36.7515 1.0642 -8.06143
head 12.5578 -0.934183 -2.16172
rclavicle -1.05157e-013 1.98785e-014
rhumerus 33.9139 9.44743 -66.0424
rradius 73.8261
rwrist 33.9048
rhand -40.5871 21.0714
rfingers 7.12502
rthumb -13.5337 -8.46878
lclavicle -1.05157e-013 1.98785e-014
lhumerus -30.1895 2.27338 77.4029
lradius 37.1661
lwrist -10.8471
lhand -15.2454 53.3694
lfingers 7.12502
lthumb 10.9281 83.065
rfemur -16.8511 9.72738 12.436
rtibia 21.1817
rfoot -9.04149 -4.55816
rtoes -15.3278
lfemur -8.53622 -7.34693 -15.4597
ltibia 18.0732
lfoot -12.7675 -6.88106
ltoes -1.01806
139
root 5.61981 18.4384 -7.82903 5.0319 14.2121 1.41359
lowerback 1.18077 1.65101 -3.98795
upperback 4.43027 2.37065 -3.15087
thorax 3.88592 1.11274 -0.968863
lowerneck -2.40108 -1.54546 -5.02466
upperneck 37.7065 1.97141 -8.19997
head 13.2143 -0.640688 -2.10735
rclavicle -3.00165e-014 -2.3059e-014
rhumerus 33.9243 9.88466 -65.5442
rradius 75.1872
rwrist 33.5047
rhand -39.3482 18.7606
rfingers 7.12502
rthumb -12.3394 -10.8552
lclavicle -3.00165e-014 -2.3059e-014
lhumerus -29.7633 3.11682 77.294
lradius 36.2912
lwrist -11.3917
lhand -15.4978 51.6372
lfingers 7.12502
lthumb 10.6846 81.3455
rfemur -16.7512 10.6583 12.4824
rtibia 21.2607
rfoot -9.13413 -5.88185
rtoes -15.658
lfemur -8.65904 -7.71069 -15.3386
ltibia 18.1971
lfoot -12.7261 -6.70702
ltoes -0.567911
